<?xml version="1.0" encoding="UTF-8" standalone="no"?>
<svg width="95px" height="29px" viewBox="0 0 95 29" version="1.1" xmlns="http://www.w3.org/2000/svg" xmlns:xlink="http://www.w3.org/1999/xlink">
    <!-- Generator: Sketch 50.2 (55047) - http://www.bohemiancoding.com/sketch -->
    <title>Slice 1</title>
    <desc>Created with Sketch.</desc>
    <defs></defs>
    <g id="Page-1" stroke="none" stroke-width="1" fill="none" fill-rule="evenodd">
        <g id="logo_vmware" fill="#696566" fill-rule="nonzero">
            <path d="M41.020625,1.45548384 L36.91375,13.2606452 C36.86125,13.423871 36.783125,13.6393548 36.783125,13.8283871 C36.783125,14.34 37.201875,14.8258065 37.801875,14.8258065 C38.325625,14.8258065 38.666875,14.4748387 38.823125,13.9632258 L42.22625,3.79096771 L45.65375,13.9916129 C45.81,14.4754839 46.124375,14.8264516 46.645,14.8264516 L46.75125,14.8264516 C47.301875,14.8264516 47.641875,14.4754839 47.798125,13.9916129 L51.1975,3.79096771 L54.654375,14.0167742 C54.785,14.4509677 55.070625,14.8264516 55.621875,14.8264516 C56.196875,14.8264516 56.61625,14.3696774 56.61625,13.8554839 C56.61625,13.6670968 56.536875,13.4522581 56.485625,13.2877419 L52.3525,1.45548384 C52.14125,0.837419329 51.724375,0.5129032 51.2525,0.5129032 L51.174375,0.5129032 C50.650625,0.5129032 50.2575,0.837419329 50.073125,1.45548384 L46.7,11.4870968 L43.2975,1.45548384 C43.114375,0.837419329 42.720625,0.5129032 42.19875,0.5129032 L42.14375,0.5129032 C41.648125,0.5129032 41.23125,0.837419329 41.020625,1.45548384" id="path174" transform="translate(46.699687, 7.669677) scale(-1, 1) rotate(-180.000000) translate(-46.699687, -7.669677) "></path>
            <path d="M70.9575,13.7967742 C70.9575,14.3664516 71.4025,14.8529032 71.951875,14.8529032 C72.53125,14.8529032 72.975,14.3929032 72.975,13.7967742 L72.975,11.4012903 C73.97,13.7277419 76.176875,14.8258065 77.639375,14.8258065 C78.245,14.8258065 78.638125,14.3664516 78.638125,13.7716129 C78.638125,13.2025806 78.273125,12.7987097 77.744375,12.7174194 C75.1225,12.3929032 72.975625,10.3625806 72.975625,6.33032262 L72.975625,1.58645165 C72.975625,1.01806456 72.556875,0.5322581 71.980625,0.5322581 C71.40375,0.5322581 70.958125,0.994193583 70.958125,1.58645165 L70.9575,13.7967742 Z" id="path178" transform="translate(74.797812, 7.692581) scale(-1, 1) rotate(-180.000000) translate(-74.797812, -7.692581) "></path>
            <path d="M85.11375,0.4006452 C81.465625,0.4006452 78.486875,3.32129036 78.486875,7.60451617 L78.486875,7.66000004 C78.486875,11.6490323 81.184375,14.8625806 84.856875,14.8625806 C88.78375,14.8625806 91.02,11.5180645 91.02,7.84774198 C91.02,7.28387101 90.579375,6.8806452 90.094375,6.8806452 L80.493125,6.8806452 C80.773125,3.88387101 82.800625,2.19741939 85.16625,2.19741939 C86.810625,2.19741939 88.01375,2.86709681 88.99125,3.80451617 C89.145625,3.93677423 89.325,4.04387101 89.5575,4.04387101 C90.04375,4.04387101 90.430625,3.64193552 90.430625,3.15806456 C90.430625,2.91806456 90.328125,2.67612907 90.12,2.49096778 C88.863125,1.23354843 87.371875,0.4006452 85.11375,0.4006452 Z M89.0425,8.40774198 C88.83625,10.9270968 87.44875,13.1206452 84.803125,13.1206452 C82.491875,13.1206452 80.745625,11.1135484 80.491875,8.40774198 L89.0425,8.40774198 Z" id="path182" transform="translate(84.753437, 7.631613) scale(-1, 1) rotate(-180.000000) translate(-84.753437, -7.631613) "></path>
            <path d="M56.651875,4.736129 L56.651875,4.79032255 C56.651875,7.72967739 59.004375,9.296129 62.42625,9.296129 C64.151875,9.296129 65.379375,9.05354836 66.58375,8.70064513 L66.58375,9.18838707 C66.58375,11.6948387 65.09,12.9916129 62.558125,12.9916129 C61.19875,12.9916129 60.4075,12.8129032 59.4125,12.3554839 C59.28375,12.3012903 59.151875,12.2735484 59.05,12.2735484 C58.579375,12.2735484 58.159375,12.6793548 58.159375,13.163871 C58.159375,13.5941935 58.34125,13.8606452 58.709375,14.0290323 C60.04,14.6251613 61.043125,14.8232258 62.766875,14.8232258 C64.673125,14.8232258 66.136875,14.3122581 67.128125,13.2864516 C68.044375,12.3425806 68.515,10.9941935 68.515,9.2129032 L68.515,1.51741932 C68.515,0.925806426 68.096875,0.4929032 67.545,0.4929032 C66.9725,0.4929032 66.584375,0.925161264 66.584375,1.46387094 L66.584375,2.79419352 C65.641875,1.52387094 64.0725,0.3929032 61.699375,0.3929032 C59.189375,0.394838684 56.651875,1.87677416 56.651875,4.736129 M66.609375,5.81548384 L66.609375,7.1645161 C65.614375,7.46064513 64.28,7.75806449 62.635,7.75806449 C60.10375,7.75806449 58.690625,6.62387094 58.690625,4.87225803 L58.690625,4.81870965 C58.690625,3.06580642 60.256875,2.04064513 62.088125,2.04064513 C64.569375,2.04064513 66.609375,3.60580642 66.609375,5.81548384" id="path186" transform="translate(62.583438, 7.608064) scale(-1, 1) rotate(-180.000000) translate(-62.583438, -7.608064) "></path>
            <path d="M4.414375,13.9503226 C3.971875,14.9516129 2.878125,15.4051613 1.856875,14.9367742 C0.834375,14.4677419 0.458125,13.2974194 0.92,12.2954839 L5.208125,2.67419352 C5.8825,1.16645158 6.593125,0.376129 7.926875,0.376129 C9.351875,0.376129 9.973125,1.23677416 10.646875,2.67419352 C10.646875,2.67419352 14.386875,11.0806452 14.424375,11.1683871 C14.4625,11.2574194 14.5825,11.5290323 14.963125,11.5264516 C15.285,11.5245161 15.555625,11.2593548 15.555625,10.9032258 L15.555625,2.68258062 C15.555625,1.41548384 16.23625,0.376129 17.54625,0.376129 C18.855,0.376129 19.5625,1.41548384 19.5625,2.68258062 L19.5625,9.40967739 C19.5625,10.7070968 20.463125,11.5490323 21.690625,11.5490323 C22.918125,11.5490323 23.735,10.6767742 23.735,9.40967739 L23.735,2.68258062 C23.735,1.41548384 24.418125,0.376129 25.725625,0.376129 C27.034375,0.376129 27.745625,1.41548384 27.745625,2.68258062 L27.745625,9.40967739 C27.745625,10.7070968 28.6425,11.5490323 29.870625,11.5490323 C31.09625,11.5490323 31.91625,10.6767742 31.91625,9.40967739 L31.91625,2.68258062 C31.91625,1.41548384 32.59875,0.376129 33.9075,0.376129 C35.215625,0.376129 35.925625,1.41548384 35.925625,2.68258062 L35.925625,10.3387097 C35.925625,13.1522581 33.73375,15.1232258 31.09625,15.1232258 C28.461875,15.1232258 26.811875,13.2419355 26.811875,13.2419355 C25.935,14.4154839 24.72625,15.1206452 22.680625,15.1206452 C20.521875,15.1206452 18.6325,13.2419355 18.6325,13.2419355 C17.755,14.4154839 16.26125,15.1206452 15.024375,15.1206452 C13.11125,15.1206452 11.591875,14.2522581 10.665,12.0645161 L7.926875,5.40193545 L4.414375,13.9503226 Z" id="path190" transform="translate(18.325255, 7.749677) scale(-1, 1) rotate(-180.000000) translate(-18.325255, -7.749677) "></path>
            <path d="M91.183125,13.1167742 L91.183125,13.1283871 C91.183125,14.0696774 91.923125,14.8625806 92.853125,14.8625806 C93.79625,14.8625806 94.52625,14.0780645 94.52625,13.1354839 L94.52625,13.1283871 C94.52625,12.183871 93.788125,11.3909677 92.853125,11.3909677 C91.91,11.3909677 91.183125,12.1729032 91.183125,13.1167742 M94.205,13.1283871 L94.205,13.1329032 C94.205,13.9070968 93.625625,14.5419355 92.853125,14.5419355 C92.0875,14.5419355 91.499375,13.896129 91.499375,13.1283871 L91.499375,13.1193548 C91.499375,12.3470968 92.080625,11.7122581 92.853125,11.7122581 C93.61625,11.7122581 94.205,12.3567742 94.205,13.1283871" id="path194" transform="translate(92.854688, 13.126774) scale(-1, 1) rotate(-180.000000) translate(-92.854688, -13.126774) "></path>
            <path d="M92.21375,13.8109677 C92.21375,13.9135484 92.293125,13.9954839 92.39375,13.9954839 L92.95125,13.9954839 C93.16125,13.9954839 93.323125,13.9341935 93.42375,13.8245161 C93.515625,13.7322581 93.565625,13.5987097 93.565625,13.443871 L93.565625,13.4387097 C93.565625,13.1754839 93.436875,13.0148387 93.2425,12.9303226 L93.48875,12.6206452 C93.523125,12.5741935 93.54625,12.536129 93.54625,12.4793548 C93.54625,12.3774194 93.4625,12.3103226 93.3775,12.3103226 C93.298125,12.3103226 93.244375,12.3522581 93.2025,12.4051613 L92.855625,12.8580645 L92.57125,12.8580645 L92.57125,12.4941935 C92.57125,12.3916129 92.494375,12.3109677 92.394375,12.3109677 C92.29375,12.3109677 92.214375,12.3922581 92.214375,12.4941935 L92.214375,13.8109677 L92.21375,13.8109677 Z M92.93125,13.183871 C93.105,13.183871 93.200625,13.2774194 93.200625,13.42 L93.200625,13.4258065 C93.200625,13.5812903 93.098125,13.6651613 92.925,13.6651613 L92.569375,13.6651613 L92.569375,13.1845161 L92.93125,13.1845161 L92.93125,13.183871 Z" id="path198" transform="translate(92.889688, 13.152903) scale(-1, 1) rotate(-180.000000) translate(-92.889688, -13.152903) "></path>
        </g>
        <text id="ANZ-TAM-TEAM" font-family="Metropolis-Light, Metropolis" font-size="11" font-weight="300" fill="#000000">
            <tspan x="5" y="27">ANZ TAM TEAM</tspan>
        </text>
    </g>
</svg>