<?xml version="1.0" encoding="UTF-8" standalone="no"?>
<svg width="90px" height="68px" viewBox="0 0 90 68" version="1.1" xmlns="http://www.w3.org/2000/svg" xmlns:xlink="http://www.w3.org/1999/xlink">
    <!-- Generator: Sketch 50.2 (55047) - http://www.bohemiancoding.com/sketch -->
    <title>dashboards</title>
    <desc>Created with Sketch.</desc>
    <defs></defs>
    <g id="Page-1" stroke="none" stroke-width="1" fill="none" fill-rule="evenodd">
        <g id="dashboards" transform="translate(-5.000000, -16.000000)" fill="#000000" fill-rule="nonzero">
            <path d="M41.6666667,47.2222222 L11.1111111,47.2222222 C8.0428625,47.2222222 5.55555556,44.7349153 5.55555556,41.6666667 L5.55555556,22.2222222 C5.55555556,19.1539736 8.0428625,16.6666667 11.1111111,16.6666667 L41.6666667,16.6666667 C44.7349153,16.6666667 47.2222222,19.1539736 47.2222222,22.2222222 L47.2222222,41.6666667 C47.2222222,44.7349153 44.7349153,47.2222222 41.6666667,47.2222222 Z M11.1111111,22.2222222 L11.1111111,41.6666667 L41.6666667,41.6666667 L41.6666667,22.2222222 L11.1111111,22.2222222 Z" id="Shape"></path>
            <path d="M88.8888889,47.2222222 L58.3333333,47.2222222 C55.2650847,47.2222222 52.7777778,44.7349153 52.7777778,41.6666667 L52.7777778,22.2222222 C52.7777778,19.1539736 55.2650847,16.6666667 58.3333333,16.6666667 L88.8888889,16.6666667 C91.9571375,16.6666667 94.4444444,19.1539736 94.4444444,22.2222222 L94.4444444,41.6666667 C94.4444444,44.7349153 91.9571375,47.2222222 88.8888889,47.2222222 Z M58.3333333,22.2222222 L58.3333333,41.6666667 L88.8888889,41.6666667 L88.8888889,22.2222222 L58.3333333,22.2222222 Z" id="Shape"></path>
            <path d="M41.6666667,83.3333333 L11.1111111,83.3333333 C8.0428625,83.3333333 5.55555556,80.8460264 5.55555556,77.7777778 L5.55555556,58.3333333 C5.55555556,55.2650847 8.0428625,52.7777778 11.1111111,52.7777778 L41.6666667,52.7777778 C44.7349153,52.7777778 47.2222222,55.2650847 47.2222222,58.3333333 L47.2222222,77.7777778 C47.2222222,80.8460264 44.7349153,83.3333333 41.6666667,83.3333333 Z M11.1111111,58.3333333 L11.1111111,77.7777778 L41.6666667,77.7777778 L41.6666667,58.3333333 L11.1111111,58.3333333 Z" id="Shape"></path>
            <path d="M88.8888889,83.3333333 L58.3333333,83.3333333 C55.2650847,83.3333333 52.7777778,80.8460264 52.7777778,77.7777778 L52.7777778,58.3333333 C52.7777778,55.2650847 55.2650847,52.7777778 58.3333333,52.7777778 L88.8888889,52.7777778 C91.9571375,52.7777778 94.4444444,55.2650847 94.4444444,58.3333333 L94.4444444,77.7777778 C94.4444444,80.8460264 91.9571375,83.3333333 88.8888889,83.3333333 Z M58.3333333,58.3333333 L58.3333333,77.7777778 L88.8888889,77.7777778 L88.8888889,58.3333333 L58.3333333,58.3333333 Z" id="Shape"></path>
            <rect id="Rectangle-path" fill-opacity="0" x="0" y="0" width="100" height="100"></rect>
        </g>
    </g>
</svg>