<?xml version="1.0" encoding="UTF-8" standalone="no"?>
<svg width="84px" height="84px" viewBox="0 0 84 84" version="1.1" xmlns="http://www.w3.org/2000/svg" xmlns:xlink="http://www.w3.org/1999/xlink">
    <!-- Generator: Sketch 50.2 (55047) - http://www.bohemiancoding.com/sketch -->
    <title>FAQ</title>
    <desc>Created with Sketch.</desc>
    <defs></defs>
    <g id="Page-1" stroke="none" stroke-width="1" fill="none" fill-rule="evenodd">
        <g id="FAQ" transform="translate(-11.000000, -5.000000)" fill="#000000" fill-rule="nonzero">
            <path d="M77.7777778,83.3333333 L16.6666667,83.3333333 L16.6666667,22.2222222 L53.3888889,22.2222222 L58.9444444,16.6666667 L16.6666667,16.6666667 C13.5984181,16.6666667 11.1111111,19.1539736 11.1111111,22.2222222 L11.1111111,83.3333333 C11.1111111,86.4015819 13.5984181,88.8888889 16.6666667,88.8888889 L77.7777778,88.8888889 C80.8460264,88.8888889 83.3333333,86.4015819 83.3333333,83.3333333 L83.3333333,41.6666667 L77.7777778,47.2222222 L77.7777778,83.3333333 Z" id="Shape"></path>
            <path d="M93.1388889,16.2222222 L83.7777778,6.86111111 C82.938724,6.01975596 81.7993408,5.54689361 80.6111111,5.54689361 C79.4228815,5.54689361 78.2834982,6.01975596 77.4444444,6.86111111 L39.3611111,45.1666667 L36.2777778,58.5277778 C36.0117966,59.839214 36.3470314,61.200847 37.1914581,62.2389002 C38.0358848,63.2769534 39.3007678,63.8823441 40.6388889,63.8888889 C40.980449,63.9265047 41.3251066,63.9265047 41.6666667,63.8888889 L55.1388889,60.9166667 L93.1388889,22.5555556 C93.980244,21.7165018 94.4531064,20.5771185 94.4531064,19.3888889 C94.4531064,18.2006592 93.980244,17.061276 93.1388889,16.2222222 Z M52.25,55.7777778 L42.0833333,58.0277778 L44.4444444,47.9444444 L73.1111111,19.0833333 L80.9444444,26.9166667 L52.25,55.7777778 Z M84.0833333,23.7777778 L76.25,15.9444444 L80.5555556,11.5555556 L88.4444444,19.4444444 L84.0833333,23.7777778 Z" id="Shape"></path>
            <rect id="Rectangle-path" fill-opacity="0" x="0" y="0" width="100" height="100"></rect>
        </g>
    </g>
</svg>