<?xml version="1.0" encoding="UTF-8" standalone="no"?>
<svg width="90px" height="73px" viewBox="0 0 90 73" version="1.1" xmlns="http://www.w3.org/2000/svg" xmlns:xlink="http://www.w3.org/1999/xlink">
    <!-- Generator: Sketch 50.2 (55047) - http://www.bohemiancoding.com/sketch -->
    <title>tools-line</title>
    <desc>Created with Sketch.</desc>
    <defs></defs>
    <g id="Page-1" stroke="none" stroke-width="1" fill="none" fill-rule="evenodd">
        <g id="tools-line" transform="translate(-5.000000, -11.000000)" fill="#000000" fill-rule="nonzero">
            <path d="M55.5555556,38.8888889 L44.4444444,38.8888889 C42.9103201,38.8888889 41.6666667,40.1325424 41.6666667,41.6666667 L41.6666667,58.3333333 C41.6666667,59.8674576 42.9103201,61.1111111 44.4444444,61.1111111 L55.5555556,61.1111111 C57.0896799,61.1111111 58.3333333,59.8674576 58.3333333,58.3333333 L58.3333333,41.6666667 C58.3333333,40.1325424 57.0896799,38.8888889 55.5555556,38.8888889 Z M54.4444444,57.2222222 L45.5555556,57.2222222 L45.5555556,42.7777778 L54.4444444,42.7777778 L54.4444444,57.2222222 Z" id="Shape"></path>
            <path d="M93.6388889,34.3888889 L82.2777778,23.0277778 C81.7603871,22.5145995 81.0620552,22.2252906 80.3333333,22.2222222 L66.4444444,22.2222222 L66.4444444,16.8055556 C66.5227897,13.7684051 64.1468806,11.2316272 61.1111111,11.1111111 L38.4444444,11.1111111 C37.0040633,11.1677893 35.647964,11.8051045 34.6851006,12.87786 C33.7222372,13.9506154 33.2346174,15.3674438 33.3333333,16.8055556 L33.3333333,22.2222222 L19.6666667,22.2222222 C18.928325,22.2179534 18.2186634,22.5078152 17.6944444,23.0277778 L6.36111111,34.3888889 C5.84114857,34.9131079 5.55128678,35.6227695 5.55555556,36.3611111 L5.55555556,77.7777778 C5.55555556,80.8460264 8.0428625,83.3333333 11.1111111,83.3333333 L88.8888889,83.3333333 C91.9571375,83.3333333 94.4444444,80.8460264 94.4444444,77.7777778 L94.4444444,36.3333333 C94.4413761,35.6046115 94.1520671,34.9062796 93.6388889,34.3888889 Z M38.8888889,16.6666667 L61.1111111,16.6666667 L61.1111111,22.2222222 L38.8888889,22.2222222 L38.8888889,16.6666667 Z M88.8888889,47.2222222 L61.1111111,47.2222222 L61.1111111,52.5833333 L88.8888889,52.5833333 L88.8888889,77.7777778 L11.1111111,77.7777778 L11.1111111,52.5833333 L38.8888889,52.5833333 L38.8888889,47.2222222 L11.1111111,47.2222222 L11.1111111,37.5 L20.8333333,27.7777778 L79.1666667,27.7777778 L88.8888889,37.5 L88.8888889,47.2222222 Z" id="Shape"></path>
            <rect id="Rectangle-path" fill-opacity="0" x="0" y="0" width="100" height="100"></rect>
        </g>
    </g>
</svg>